/* XPM */
static char * EmacsIcon_highlighted_xpm[] = {
"22 22 108 2",
"  	c None",
". 	c #2A193E",
"+ 	c #29173D",
"@ 	c #32214A",
"# 	c #372B52",
"$ 	c #3C3459",
"% 	c #3B3157",
"& 	c #362950",
"* 	c #2F1E46",
"= 	c #413E62",
"- 	c #424163",
"; 	c #403C60",
"> 	c #3E375D",
", 	c #382B53",
"' 	c #2E1C43",
") 	c #3F3B5F",
"! 	c #464263",
"~ 	c #4B4967",
"{ 	c #57526B",
"] 	c #5B566D",
"^ 	c #4F4666",
"/ 	c #413B60",
"( 	c #3E325A",
"_ 	c #332049",
": 	c #35274F",
"< 	c #504D68",
"[ 	c #666373",
"} 	c #7C7B7E",
"| 	c #77757B",
"1 	c #4E4867",
"2 	c #40335E",
"3 	c #524E69",
"4 	c #5F5B6F",
"5 	c #696674",
"6 	c #7F7E7F",
"7 	c #41365F",
"8 	c #3A2E56",
"9 	c #7B7A7D",
"0 	c #737179",
"a 	c #6F6C77",
"b 	c #6C6875",
"c 	c #635E70",
"d 	c #463A61",
"e 	c #41325D",
"f 	c #36224D",
"g 	c #676573",
"h 	c #4A4264",
"i 	c #3F2E5B",
"j 	c #3C2A57",
"k 	c #402E5C",
"l 	c #3F2B5A",
"m 	c #413960",
"n 	c #554E69",
"o 	c #75727A",
"p 	c #4E4164",
"q 	c #5C536C",
"r 	c #45335E",
"s 	c #41295B",
"t 	c #5F576D",
"u 	c #514666",
"v 	c #43295C",
"w 	c #381B4C",
"x 	c #6E6B76",
"y 	c #45255D",
"z 	c #351D4A",
"A 	c #43265C",
"B 	c #311944",
"C 	c #615A6F",
"D 	c #48345F",
"E 	c #46355E",
"F 	c #422F5C",
"G 	c #422159",
"H 	c #2A143B",
"I 	c #4B3F63",
"J 	c #726D77",
"K 	c #746C79",
"L 	c #716C77",
"M 	c #6D6475",
"N 	c #584268",
"O 	c #47235E",
"P 	c #48225F",
"Q 	c #584C69",
"R 	c #5F536D",
"S 	c #583F68",
"T 	c #421E58",
"U 	c #553B66",
"V 	c #5A4D6A",
"W 	c #62566E",
"X 	c #655770",
"Y 	c #604E6D",
"Z 	c #4B2961",
"` 	c #461F5C",
" .	c #311642",
"..	c #311F47",
"+.	c #4C3761",
"@.	c #4B3361",
"#.	c #482C5F",
"$.	c #2C1A40",
"%.	c #3F2858",
"&.	c #42275C",
"*.	c #3C1A50",
"=.	c #2D143D",
"-.	c #2D1940",
";.	c #3A1F50",
">.	c #3E1F53",
",.	c #3C1C50",
"'.	c #361949",
").	c #231232",
"                    . +                     ",
"              @ # $ $ $ % & *               ",
"          @ % = - - - = = ; > , '           ",
"        & ) - - - = ! ~ { ] ^ / ( _         ",
"      : = - - = = - < ] [ } | 1 2 ( *       ",
"    @ ) - - - ~ < 3 ] 4 5 } 6 { 2 7 8 .     ",
"    % - - - [ 9 } } | 0 a b c d e e ( f     ",
"  @ ; = = = g 6 6 ] h d / 7 e 2 e i e j .   ",
"  # = = = / ! g } [ h 7 e 7 e 2 ( k k l *   ",
"  8 = = / / m / n a o c p e i k i i i l _   ",
"  % = m m m d 1 ] g | 6 | q r i i l l s f   ",
"  % / m m 3 a } 6 } a t u d i i l l s v w   ",
"  , / 7 n 9 6 6 x ^ r i i i l l s s v y z   ",
"  : m 7 [ 6 6 | d i i i l l l l s A A y B   ",
"  * ( 7 u | 6 } C p D E F F F v A y y G H   ",
"    , 7 e I c o } 9 | o J K L M N O P w     ",
"    ' i ( ( F E p Q q R C | 6 K S P T H     ",
"      _ i i i k E U V W X Y U Z ` `  .      ",
"        ..l i k E +.@.#.y y P ` `  .        ",
"          $.f %.&.A y y P P O *.=.          ",
"              -.z ;.>.>.,.'.=.              ",
"                    ).).                    "};
