/* XPM */
static char * Firefox_Logo_highlighted_xpm[] = {
"22 22 147 2",
"  	c None",
". 	c #80771C",
"+ 	c #013276",
"@ 	c #003B7C",
"# 	c #00427F",
"$ 	c #00467E",
"% 	c #0C516D",
"& 	c #6B6F21",
"* 	c #807826",
"= 	c #807522",
"- 	c #806B14",
"; 	c #721122",
"> 	c #0E235F",
", 	c #0A2B68",
"' 	c #203858",
") 	c #1E405F",
"! 	c #00497D",
"~ 	c #1C575D",
"{ 	c #767318",
"] 	c #806311",
"^ 	c #6F1121",
"/ 	c #71181D",
"( 	c #5D2325",
"_ 	c #4F2C2E",
": 	c #583925",
"< 	c #654519",
"[ 	c #11476A",
"} 	c #797412",
"| 	c #807726",
"1 	c #807015",
"2 	c #6F0F21",
"3 	c #7B121B",
"4 	c #801E12",
"5 	c #802A0D",
"6 	c #803707",
"7 	c #804303",
"8 	c #493E33",
"9 	c #6C6E16",
"0 	c #80771E",
"a 	c #807322",
"b 	c #79101E",
"c 	c #7F1617",
"d 	c #802E0B",
"e 	c #7F3A07",
"f 	c #804601",
"g 	c #7B3C0C",
"h 	c #4B3E39",
"i 	c #33474F",
"j 	c #064679",
"k 	c #004A7A",
"l 	c #445F36",
"m 	c #80740C",
"n 	c #80721E",
"o 	c #6E0B2A",
"p 	c #802211",
"q 	c #803D05",
"r 	c #804009",
"s 	c #58492A",
"t 	c #084277",
"u 	c #0D4B6D",
"v 	c #5D6420",
"w 	c #80720D",
"x 	c #804B00",
"y 	c #763B08",
"z 	c #343445",
"A 	c #0B376D",
"B 	c #003A7B",
"C 	c #615F1C",
"D 	c #806D08",
"E 	c #806E1A",
"F 	c #806D1B",
"G 	c #7A3609",
"H 	c #6F3E0D",
"I 	c #47392D",
"J 	c #042C6F",
"K 	c #003577",
"L 	c #003D7E",
"M 	c #28444E",
"N 	c #7B5F03",
"O 	c #806805",
"P 	c #806714",
"Q 	c #6B092E",
"R 	c #7D121A",
"S 	c #792511",
"T 	c #732513",
"U 	c #351E39",
"V 	c #151C53",
"W 	c #0C2361",
"X 	c #072969",
"Y 	c #11305B",
"Z 	c #6E5C0D",
"` 	c #806200",
" .	c #806406",
"..	c #806713",
"+.	c #680831",
"@.	c #760F22",
"#.	c #7F1A14",
"$.	c #7C270E",
"%.	c #542824",
"&.	c #1D1A4B",
"*.	c #13245A",
"=.	c #805B00",
"-.	c #805E00",
";.	c #80610A",
">.	c #805D0E",
",.	c #670732",
"'.	c #730D25",
").	c #801915",
"!.	c #633916",
"~.	c #523723",
"{.	c #664F16",
"].	c #38393C",
"^.	c #222F46",
"/.	c #776206",
"(.	c #805C04",
"_.	c #805B09",
":.	c #630437",
"<.	c #7B3210",
"[.	c #7D4505",
"}.	c #794A07",
"|.	c #55341A",
"1.	c #3A2E32",
"2.	c #4A4124",
"3.	c #805601",
"4.	c #730E24",
"5.	c #7F260F",
"6.	c #772B12",
"7.	c #501D27",
"8.	c #40192D",
"9.	c #331632",
"0.	c #211040",
"a.	c #1B1047",
"b.	c #1D1346",
"c.	c #3C2C2D",
"d.	c #775905",
"e.	c #805200",
"f.	c #6E2A13",
"g.	c #491D25",
"h.	c #361530",
"i.	c #3A1D2D",
"j.	c #785004",
"k.	c #804D00",
"l.	c #804305",
"m.	c #803309",
"n.	c #7F3609",
"o.	c #640634",
"p.	c #7A1E13",
"                                            ",
"                            .               ",
"                + @ # $ % & * = -           ",
"      ;     > , ' ) # ! ~ { * * = ]         ",
"      ^ / ( _ : < [ # ! ~ } * * | = 1       ",
"    2 3 4 5 6 7 8 @ # $ % 9 0 | | | a       ",
"    b c 4 d e f g h i j k l m = = = a n     ",
"  o b c p d q f 6 r s t $ u v w n a n n     ",
"  o b c p d q x y z A B # # [ C D E F F E   ",
"  o b c p d G H I J + K B B L M N O - F P   ",
"  Q b R 4 S T U V W X + + K K Y Z `  ...]   ",
"  +.@.R #.p $.%.&.V *.W X X + Y Z =.-.;.>.  ",
"  ,.'.3 ).p d e !.~.{.{.].*.W ^./.=.=.(._.  ",
"  :.o b c 4 5 <.g [.}.|.1.V V 2.` 3.3.3.(.  ",
"    +.4.R #.5.6.7.8.9.0.a.b.c.d.=.3.e.e.    ",
"    :.o b c 4 5 f.g.h.9.i.|.j.3.e.e.k.l.    ",
"      +.'.R c p 5 m.G y [.x k.k.k.x l.n.    ",
"      :.Q @.R c 4 5.m.n.q 7 7 f 7 7 q       ",
"        o.o @.R c 4 p 5 d m.6 e n.n.        ",
"            o 4.3 c #.4 p 5.$.T             ",
"                '.b R c c #.p.              ",
"                                            "};
