/* XPM */
static char *pomodoro[] = {
/* columns rows colors chars-per-pixel */
"22 22 47 1 ",
"  c None",
". c #7D5A20",
"X c #795E20",
"o c #597E23",
"O c #6A6E22",
"+ c #776121",
"@ c #657322",
"# c #647422",
"$ c #BF1919",
"% c #BE1A19",
"& c #BF1A19",
"* c #BE1B19",
"= c #BD1B1A",
"- c #BE1B1A",
"; c #BA1F1A",
": c #9C3C1D",
"> c #AD2B1B",
", c #AB2D1B",
"< c #AA2F1C",
"1 c #B7211A",
"2 c #B3251B",
"3 c #B2261B",
"4 c #B8211A",
"5 c #A6311C",
"6 c #A8301C",
"7 c #C21619",
"8 c #C01819",
"9 c #C11819",
"0 c #C01919",
"q c #894E1F",
"w c #1DBB29",
"e c #1EBA29",
"r c #1ABD29",
"t c #1BBD29",
"y c #19BF29",
"u c #1ABE29",
"i c #18BF2A",
"p c #1CBC29",
"a c #36A127",
"s c #25B328",
"d c #21B629",
"f c #22B629",
"g c #4B8D25",
"h c #459325",
"j c #17C02A",
"k c #16C12A",
"l c #18C029",
/* pixels */
"                      ",
"          ip          ",
"          pi          ",
"       eiiipilk       ",
"     ieillpppg@O5     ",
"    3:qilsddd<78--    ",
"   --8hl@42gla40---   ",
"  --->d.8888+l+8----  ",
" ---04600---0660----- ",
" ----000-----00------ ",
"----------------------",
"----------------------",
"----------------------",
"----------------------",
" -----------0-------- ",
" -------------------- ",
"  0----------------0  ",
"  00--------------00  ",
"   4--------------4   ",
"     ------------     ",
"       --------       ",
"                      "
};
